HIERARCHY
ROOT Hips
{
	OFFSET 0.000000 0.000000 0.000000
	CHANNELS 6 Xposition Yposition Zposition Zrotation Yrotation Xrotation 
	JOINT LHipJoint
	{
		OFFSET 0.000000 0.000000 0.000000
		CHANNELS 3 Zrotation Yrotation Xrotation
		JOINT LeftUpLeg
		{
			OFFSET 1.363060 -1.794630 0.839290
			CHANNELS 3 Zrotation Yrotation Xrotation
			JOINT LeftLeg
			{
				OFFSET 2.448110 -6.726130 0.000000
				CHANNELS 3 Zrotation Yrotation Xrotation
				JOINT LeftFoot
				{
					OFFSET 2.562200 -7.039590 0.000000
					CHANNELS 3 Zrotation Yrotation Xrotation
					JOINT LeftToeBase
					{
						OFFSET 0.157640 -0.433110 2.322550
						CHANNELS 3 Zrotation Yrotation Xrotation
						End Site
						{
							OFFSET 0.000000 0.000000 0.000000
						}
					}
				}
			}
		}
	}
	JOINT RHipJoint
	{
		OFFSET 0.000000 0.000000 0.000000
		CHANNELS 3 Zrotation Yrotation Xrotation
		JOINT RightUpLeg
		{
			OFFSET -1.305520 -1.794630 0.839290
			CHANNELS 3 Zrotation Yrotation Xrotation
			JOINT RightLeg
			{
				OFFSET -2.542530 -6.985550 0.000000
				CHANNELS 3 Zrotation Yrotation Xrotation
				JOINT RightFoot
				{
					OFFSET -2.568260 -7.056230 0.000000
					CHANNELS 3 Zrotation Yrotation Xrotation
					JOINT RightToeBase
					{
						OFFSET -0.164730 -0.452590 2.363150
						CHANNELS 3 Zrotation Yrotation Xrotation
						End Site
						{
							OFFSET 0.000000 0.000000 0.000000
						}
					}
				}
			}
		}
	}
	JOINT LowerBack
	{
		OFFSET 0.000000 0.000000 0.000000
		CHANNELS 3 Zrotation Yrotation Xrotation
		JOINT Spine
		{
			OFFSET 0.028270 2.035590 -0.193380
			CHANNELS 3 Zrotation Yrotation Xrotation
			JOINT Spine1
			{
				OFFSET 0.056720 2.048850 -0.042750
				CHANNELS 3 Zrotation Yrotation Xrotation
				JOINT Neck
				{
					OFFSET 0.000000 0.000000 0.000000
					CHANNELS 3 Zrotation Yrotation Xrotation
					JOINT Neck1
					{
						OFFSET -0.054170 1.746240 0.172020
						CHANNELS 3 Zrotation Yrotation Xrotation
						JOINT Head
						{
							OFFSET 0.104070 1.761360 -0.123970
							CHANNELS 3 Zrotation Yrotation Xrotation
							End Site
							{
								OFFSET 0.000000 0.000000 0.000000
							}
						}
					}
				}
				JOINT LeftShoulder
				{
					OFFSET 0.000000 0.000000 0.000000
					CHANNELS 3 Zrotation Yrotation Xrotation
					JOINT LeftArm
					{
						OFFSET 3.362410 1.200890 -0.311210
						CHANNELS 3 Zrotation Yrotation Xrotation
						JOINT LeftForeArm
						{
							OFFSET 4.983000 -0.000000 -0.000000
							CHANNELS 3 Zrotation Yrotation Xrotation
							JOINT LeftHand
							{
								OFFSET 3.483560 -0.000000 -0.000000
								CHANNELS 3 Zrotation Yrotation Xrotation
								JOINT LeftFingerBase
								{
									OFFSET 0.000000 0.000000 0.000000
									CHANNELS 3 Zrotation Yrotation Xrotation
									JOINT LeftHandIndex1
									{
										OFFSET 0.715260 -0.000000 -0.000000
										CHANNELS 3 Zrotation Yrotation Xrotation
										End Site
										{
											OFFSET 0.000000 0.000000 0.000000
										}
									}
								}
								JOINT LThumb
								{
									OFFSET 0.000000 0.000000 0.000000
									CHANNELS 3 Zrotation Yrotation Xrotation
									End Site
									{
										OFFSET 0.000000 0.000000 0.000000
									}
								}
							}
						}
					}
				}
				JOINT RightShoulder
				{
					OFFSET 0.000000 0.000000 0.000000
					CHANNELS 3 Zrotation Yrotation Xrotation
					JOINT RightArm
					{
						OFFSET -3.136600 1.374050 -0.404650
						CHANNELS 3 Zrotation Yrotation Xrotation
						JOINT RightForeArm
						{
							OFFSET -5.241900 -0.000000 -0.000000
							CHANNELS 3 Zrotation Yrotation Xrotation
							JOINT RightHand
							{
								OFFSET -3.444170 -0.000000 -0.000000
								CHANNELS 3 Zrotation Yrotation Xrotation
								JOINT RightFingerBase
								{
									OFFSET 0.000000 0.000000 0.000000
									CHANNELS 3 Zrotation Yrotation Xrotation
									JOINT RightHandIndex1
									{
										OFFSET -0.622530 -0.000000 -0.000000
										CHANNELS 3 Zrotation Yrotation Xrotation
										End Site
										{
											OFFSET 0.000000 0.000000 0.000000
										}
									}
								}
								JOINT RThumb
								{
									OFFSET 0.000000 0.000000 0.000000
									CHANNELS 3 Zrotation Yrotation Xrotation
									End Site
									{
										OFFSET 0.000000 0.000000 0.000000
									}
								}
							}
						}
					}
				}
			}
		}
	}
}
MOTION
Frames: 5
Frame Time: 0.008333
1.662763 18.023303 3.850092 -101.405050 -79.571657 103.015919 -0.722607 -2.462839 -2.650908 0.949973 -2.790967 -40.754123 13.730048 19.504077 70.407241 39.294690 -2.057383 -167.714733 0.000000 0.027600 0.075800 1.984101 1.455820 -0.877646 32.160022 7.519012 -11.791541 -0.862304 -9.020094 24.086796 0.560619 -4.930282 1.796519 -1.162400 -6.844400 19.255200 7.406680 -0.723948 6.467428 1.937758 -0.349106 -4.767675 4.707900 -0.538149 -1.915530 -5.100252 -4.099288 -15.806921 5.566782 -4.836658 6.577899 2.376500 -2.257400 7.351200 6.688402 2.189103 0.344353 -89.254015 7.668075 7.041688 8.665357 -25.854021 -2.560300 1.208221 1.519803 30.367967 12.958108 16.547733 3.248500 -7.125000 0.000000 0.000000 -13.663700 44.482200 0.178100 -3.445145 -2.834911 -1.748105 87.317379 16.337523 51.400136 -58.067272 57.311744 -35.366533 -0.470715 0.533876 -4.680371 -15.305354 -10.985440 3.058700 7.125000 0.000000 0.000000 10.959700 -41.715400 0.900000 
1.545698 18.052114 3.839983 -102.862832 -79.449283 104.160750 -0.651563 -2.579944 -2.844420 1.085310 -2.949561 -43.582084 12.723878 19.156133 67.326505 39.269904 -0.692895 -167.797536 -0.000000 0.040600 0.111500 2.004735 1.392883 -0.770862 32.489166 7.628241 -10.588612 -0.767127 -8.793783 23.414694 0.611825 -5.165350 1.634513 -1.124800 -6.736600 18.937300 7.540081 -0.537677 6.835849 1.885613 -0.067922 -4.724106 4.485920 -0.402256 -1.936360 -5.099649 -4.157632 -15.763558 5.616963 -4.919359 6.576247 2.395000 -2.292500 7.348800 6.671507 2.126954 0.348275 -88.671783 8.227843 5.134762 8.110694 -24.953737 -2.400693 1.177103 1.471293 30.830840 12.405818 16.223879 3.052200 -7.125000 0.000000 0.000000 -14.065400 44.160200 0.297700 -3.480631 -2.764895 -1.734329 87.606730 18.446928 51.940341 -59.402322 57.643339 -36.471360 -0.476628 0.525856 -4.737108 -15.442607 -10.805496 3.037900 7.125000 0.000000 0.000000 10.803700 -41.538900 0.934500 
1.426915 18.078904 3.831491 -104.401105 -79.264324 105.353288 -0.570129 -2.688308 -3.030658 1.264679 -3.105445 -46.328797 11.805861 18.791320 64.501656 39.274261 0.279133 -167.956195 0.000100 0.050700 0.139300 2.019629 1.328133 -0.667782 32.891601 7.752461 -9.332425 -0.677364 -8.570762 22.754730 0.664621 -5.407867 1.473296 -1.088400 -6.630300 18.624500 7.745651 -0.348879 7.232107 1.838714 0.221626 -4.675525 4.234341 -0.263861 -1.954780 -5.098177 -4.215458 -15.736750 5.664247 -5.001018 6.578957 2.413400 -2.327300 7.352000 6.641833 2.063494 0.354968 -88.037965 8.877271 3.672512 7.713728 -24.242855 -2.275864 1.118739 1.428831 30.929968 11.752097 15.739521 2.809600 -7.125000 0.000000 0.000000 -14.498600 43.682900 0.482000 -3.511897 -2.695305 -1.723830 87.867472 20.474815 52.405168 -60.664762 57.941730 -37.522859 -0.481312 0.518854 -4.847308 -15.485550 -10.592470 2.988500 7.125000 0.000000 0.000000 10.722300 -41.320700 0.985700 
1.306615 18.103773 3.824415 -105.963834 -79.029684 106.552208 -0.480690 -2.786891 -3.206813 1.482539 -3.268984 -49.006075 10.974723 18.420652 61.925540 39.295974 0.944347 -168.177420 0.000200 0.082600 0.226900 2.029029 1.263022 -0.569727 33.346420 7.890598 -8.049687 -0.593985 -8.354524 22.116973 0.717921 -5.653511 1.312990 -1.054600 -6.529800 18.329500 8.006986 -0.159122 7.643055 1.796545 0.516301 -4.624691 3.959895 -0.123716 -1.972043 -5.089916 -4.273100 -15.725133 5.702292 -5.083458 6.582450 2.427200 -2.362900 7.358600 6.600379 1.998711 0.364283 -87.361755 9.617391 2.690024 7.458560 -23.722080 -2.184023 1.045880 1.393087 30.700070 11.092835 15.188700 2.564700 -7.125000 0.000000 0.000000 -14.910300 43.146500 0.698600 -3.538514 -2.626694 -1.716928 88.098114 22.419292 52.794660 -61.840318 58.205870 -38.507443 -0.484812 0.512857 -4.982385 -15.445914 -10.359985 2.917300 7.125000 0.000000 0.000000 10.708300 -41.076200 1.049800 
1.185102 18.126720 3.818349 -107.413801 -78.776607 107.648664 -0.387297 -2.875880 -3.370204 1.727806 -3.479124 -51.638134 10.228498 18.055600 59.592502 39.328119 1.393617 -168.454340 0.000300 0.110200 0.302700 2.033331 1.199629 -0.477875 33.817118 8.033593 -6.782966 -0.517972 -8.148256 21.511819 0.771685 -5.899305 1.142139 -1.026500 -6.444800 18.080700 8.288508 0.022179 8.040734 1.759122 0.800876 -4.576170 3.679534 0.011204 -1.990202 -5.075507 -4.329126 -15.712831 5.730640 -5.164511 6.578687 2.435800 -2.398700 7.361400 6.549636 1.933279 0.375846 -86.655313 10.443367 2.151097 7.316067 -23.365206 -2.119108 0.971239 1.354512 30.250459 10.548071 14.566936 2.343600 -7.125000 0.000000 0.000000 -15.205300 42.558700 0.939500 -3.560670 -2.559276 -1.713522 88.294398 24.275415 53.115865 -62.918067 58.435981 -39.415833 -0.487209 0.508855 -5.115759 -15.342340 -10.057229 2.816000 7.125000 0.000000 0.000000 10.734800 -40.756500 1.138200 
